<svg width="784" height="557" viewBox="0 0 784 557" fill="none" xmlns="http://www.w3.org/2000/svg">
<path d="M521.868 189.182C503.117 189.182 486.167 196.879 473.999 209.285L373.281 127.651C382.345 114.522 387.656 98.6059 387.656 81.444C387.656 36.4619 351.189 0 306.212 0C261.235 0 224.768 36.4671 224.768 81.444C224.768 97.1489 229.218 111.809 236.915 124.246L117.214 211.734C104.93 197.898 87.0132 189.182 67.0587 189.182C30.0215 189.182 0 219.204 0 256.241C0 293.279 30.0215 323.3 67.0587 323.3C104.096 323.3 134.118 293.279 134.118 256.241C134.118 243.714 130.681 231.99 124.7 221.96L244.4 134.471C259.34 151.865 281.491 162.888 306.217 162.888C329.482 162.888 350.466 153.132 365.31 137.491L466.022 219.12C458.943 229.746 454.82 242.511 454.82 256.236C454.82 293.273 484.842 323.295 521.879 323.295C558.916 323.295 588.938 293.273 588.938 256.236C588.938 219.199 558.906 189.182 521.868 189.182Z" fill="#FF3544"/>
<path d="M716.377 367.818C697.626 367.818 680.676 360.121 668.508 347.715L567.79 429.349C576.854 442.478 582.165 458.394 582.165 475.556C582.165 520.538 545.698 557 500.721 557C455.744 557 419.277 520.533 419.277 475.556C419.277 459.851 423.727 445.192 431.424 432.754L311.723 345.266C299.439 359.102 281.522 367.818 261.568 367.818C224.53 367.818 194.509 337.796 194.509 300.759C194.509 263.722 224.53 233.7 261.568 233.7C298.605 233.7 328.626 263.722 328.626 300.759C328.626 313.286 325.19 325.011 319.209 335.041L438.909 422.529C453.849 405.135 475.999 394.112 500.726 394.112C523.99 394.112 544.974 403.868 559.819 419.509L660.531 337.881C653.452 327.254 649.329 314.49 649.329 300.764C649.329 263.727 679.35 233.705 716.388 233.705C753.425 233.705 783.447 263.727 783.447 300.764C783.447 337.801 753.415 367.818 716.377 367.818Z" fill="#193A91"/>
</svg>
