<svg xmlns="http://www.w3.org/2000/svg" xmlns:xlink="http://www.w3.org/1999/xlink" version="1.1" id="Layer_1" x="0px" y="0px" viewBox="0 0 1280 1024" style="enable-background:new 0 0 1280 1024;" xml:space="preserve">
<style type="text/css">
	.st0{fill:#ffffff;}
	.st1{fill:#ffffff;}
	.st2{fill:none;stroke:#ffffff;stroke-miterlimit:10;}
	.st3{fill:#FFFFFF;}
	.st4{fill:#ffffff;}
	.st5{fill:#ffffff;}
	.st6{fill:#ffffff;}
	.st7{fill:#ffffff;}
	.st8{fill:#ffffff;}
</style>
<g>
	<g>
		<path class="st0" d="M419.8,690.5h-31.4v-92.9h-14.7v-16.3h60.9v16.3h-14.7V690.5z" fill="#ffffff"/>
		<path class="st0" d="M432.1,690.5l13.5-109.2h46.9L506,690.5h-30l-0.9-9.1H463l-0.9,9.1H432.1z M465.3,664.1h7.4l-3.8-41.6    L465.3,664.1z" fill="#ffffff"/>
		<path class="st0" d="M543.5,690.5h-31.4V581.3h49.4c4.8,0,8.9,1.5,12.2,4.4c3.3,2.9,5,6.9,5,11.9v48.2c0,0.8-0.3,1.7-0.8,2.7    c-0.5,0.9-1.1,1.9-1.8,2.8s-1.4,1.8-2.2,2.6l-2,2c0.5,0.5,1.2,1.2,2,2s1.5,1.7,2.2,2.7c0.7,0.9,1.3,1.9,1.8,2.8s0.8,1.8,0.8,2.5    v24.6h-31.4V664h-3.9V690.5z M543.5,647.6h3.9v-50h-3.9V647.6z" fill="#ffffff"/>
		<path class="st0" d="M652.6,690.5h-49.4c-4.8,0-8.9-1.5-12.2-4.4c-3.3-2.9-5-6.9-5-11.9v-76.5c0-5,1.7-9,5-11.9    c3.3-2.9,7.4-4.4,12.2-4.4h49.4v16.3h-35.3v76.5h3.9V612h31.4V690.5z" fill="#ffffff"/>
		<path class="st0" d="M659.8,581.3h48.6v16.3h-17.3v30.1h17.3V644h-17.3v30.1h17.3v16.3h-48.6V581.3z" fill="#ffffff"/>
		<path class="st0" d="M761.8,690.5h-31.4v-92.9h-14.7v-16.3h60.9v16.3h-14.7V690.5z" fill="#ffffff"/>
		<path class="st0" d="M783.8,581.3h48.6v16.3h-17.3v30.1h17.3V644h-17.3v30.1h17.3v16.3h-48.6V581.3z" fill="#ffffff"/>
		<path class="st0" d="M839.6,581.3H889c4.8,0,8.9,1.5,12.2,4.4c3.3,2.9,5,6.9,5,11.9v76.5c0,5-1.7,9-5,11.9    c-3.3,2.9-7.4,4.4-12.2,4.4h-49.4V581.3z M871,674.1h3.9v-76.5H871V674.1z" fill="#ffffff"/>
	</g>
	<g>
		<path class="st1" d="M446.4,760.2L434,711.7h6.6l5.8,24.6c1.4,6,2.7,12.1,3.6,16.8h0.1c0.8-4.8,2.3-10.6,4-16.8l6.5-24.5h6.6    l5.9,24.6c1.4,5.8,2.7,11.5,3.4,16.6h0.1c1-5.3,2.4-10.7,3.9-16.8l6.4-24.5h6.4l-13.8,48.5H473l-6.1-25.3    c-1.5-6.2-2.5-10.9-3.2-15.8h-0.1c-0.9,4.8-1.9,9.6-3.7,15.8l-6.9,25.3H446.4z" fill="#ffffff"/>
		<path class="st1" d="M524.5,737.5h-18.9V755h21v5.3h-27.3v-48.5h26.2v5.3h-19.9v15.3h18.9V737.5z" fill="#ffffff"/>
		<path class="st1" d="M534.8,712.4c2.7-0.6,7.1-1,11.4-1c6.3,0,10.3,1.1,13.3,3.5c2.5,1.9,4,4.8,4,8.6c0,4.7-3.1,8.8-8.2,10.7v0.1    c4.6,1.2,10,5,10,12.2c0,4.2-1.7,7.3-4.1,9.7c-3.4,3.1-8.9,4.5-16.8,4.5c-4.3,0-7.6-0.3-9.7-0.6V712.4z M541,732.2h5.7    c6.6,0,10.5-3.5,10.5-8.1c0-5.7-4.3-7.9-10.7-7.9c-2.9,0-4.5,0.2-5.5,0.4V732.2z M541,755.5c1.2,0.2,3,0.3,5.3,0.3    c6.5,0,12.5-2.4,12.5-9.4c0-6.6-5.7-9.4-12.5-9.4H541V755.5z" fill="#ffffff"/>
		<path class="st1" d="M589.1,712.4c3.8-0.6,8.4-1,13.3-1c9,0,15.4,2.1,19.7,6c4.3,4,6.8,9.6,6.8,17.4c0,7.9-2.4,14.4-7,18.9    c-4.5,4.5-12,7-21.5,7c-4.5,0-8.2-0.2-11.4-0.6V712.4z M595.3,755.3c1.6,0.3,3.9,0.4,6.3,0.4c13.4,0,20.7-7.5,20.7-20.6    c0.1-11.4-6.4-18.7-19.7-18.7c-3.2,0-5.7,0.3-7.3,0.6V755.3z" fill="#ffffff"/>
		<path class="st1" d="M662.1,737.5h-18.9V755h21v5.3H637v-48.5h26.2v5.3h-19.9v15.3h18.9V737.5z" fill="#ffffff"/>
		<path class="st1" d="M671.6,752.6c2.8,1.7,6.9,3.2,11.2,3.2c6.4,0,10.2-3.4,10.2-8.3c0-4.5-2.6-7.1-9.1-9.6    c-7.9-2.8-12.8-6.9-12.8-13.8c0-7.6,6.3-13.2,15.7-13.2c5,0,8.6,1.2,10.7,2.4l-1.7,5.1c-1.6-0.9-4.8-2.3-9.2-2.3    c-6.6,0-9.1,4-9.1,7.3c0,4.5,3,6.8,9.6,9.4c8.2,3.2,12.4,7.1,12.4,14.3c0,7.5-5.5,14-17,14c-4.7,0-9.8-1.4-12.4-3.1L671.6,752.6z" fill="#ffffff"/>
		<path class="st1" d="M714.2,711.7v48.5h-6.3v-48.5H714.2z" fill="#ffffff"/>
		<path class="st1" d="M762.1,758.1c-2.8,1-8.4,2.7-14.9,2.7c-7.3,0-13.4-1.9-18.1-6.4c-4.2-4-6.8-10.5-6.8-18.1    c0.1-14.5,10-25.1,26.3-25.1c5.6,0,10,1.2,12.1,2.2l-1.5,5.1c-2.6-1.2-5.8-2.1-10.7-2.1c-11.8,0-19.5,7.3-19.5,19.5    c0,12.3,7.4,19.6,18.7,19.6c4.1,0,6.9-0.6,8.4-1.3v-14.5h-9.9v-5h16V758.1z" fill="#ffffff"/>
		<path class="st1" d="M771.6,760.2v-48.5h6.8l15.6,24.6c3.6,5.7,6.4,10.8,8.7,15.8l0.1-0.1c-0.6-6.5-0.7-12.4-0.7-19.9v-20.3h5.9    v48.5h-6.3l-15.4-24.6c-3.4-5.4-6.6-10.9-9.1-16.2l-0.2,0.1c0.4,6.1,0.5,12,0.5,20v20.7H771.6z" fill="#ffffff"/>
		<path class="st1" d="M818.2,752.6c2.8,1.7,6.9,3.2,11.2,3.2c6.4,0,10.2-3.4,10.2-8.3c0-4.5-2.6-7.1-9.1-9.6    c-7.9-2.8-12.8-6.9-12.8-13.8c0-7.6,6.3-13.2,15.7-13.2c5,0,8.6,1.2,10.7,2.4l-1.7,5.1c-1.6-0.9-4.8-2.3-9.2-2.3    c-6.6,0-9.1,4-9.1,7.3c0,4.5,3,6.8,9.6,9.4c8.2,3.2,12.4,7.1,12.4,14.3c0,7.5-5.5,14-17,14c-4.7,0-9.8-1.4-12.4-3.1L818.2,752.6z" fill="#ffffff"/>
	</g>
	<g>
		<path class="st0" d="M645.2,365.8c14.5-1.2,29.5,6.4,36.3,19.4c5.3,9.9,4.7,21.5,4.4,32.5c-0.7,17.7-16.2,33.5-33.9,34.3    c-14.1,1.2-30.6,1.1-41-10.1c-11.6-10.5-12.1-27.1-11.3-41.6c0.8-13.7,10.1-26.6,22.9-31.5C629.9,365.9,637.7,365.8,645.2,365.8z" fill="#ffffff"/>
		<g>
			<path class="st0" d="M663.2,263c3.6,0.3,7.2,0.6,10.8,0.9c0.2,5.6,0.4,11.2,0.5,16.7c21.6,0.9,43.8,7.3,59.7,22.7     c16.5,14.5,25.7,36,26.9,57.7c5.7-0.3,11.5-0.5,17.2-0.7c0.5,3.5,0.9,7,1.4,10.5c-18.7,1-37.3,1.8-56,1.9     c-1.2-29.8-28.6-55.2-58.6-53.6C664.5,300.3,663.5,281.7,663.2,263z" fill="#ffffff"/>
			<path class="st0" d="M592.9,268.9c3.4,0.5,9.9-3.2,10.8,1.9c0.7,17.5,1.1,35.1,2.1,52.7c-15,1.9-30.1,7.7-40,19.6     c-9.6,10.7-13.8,25.1-14.2,39.3c-18.6,0.7-37.1,1.4-55.7,2.2c0.2-3.7,0.3-7.3,0.4-11c5.8-0.2,11.7-0.4,17.5-0.8     c-0.1-18.1,4.7-36.5,15.4-51.2c14.4-20.5,38.4-33.8,63.4-35C593.3,280.7,593.3,274.8,592.9,268.9z" fill="#ffffff"/>
			<path class="st0" d="M729.2,432.6c18.3-0.5,36.6-1.6,55-2.1c-0.1,3.7-0.1,7.4-0.1,11.1c-5.9,0-11.9,0.2-17.8,0.5     c0.2,20.5-6.2,41.5-19.8,57c-14.5,17.7-36.7,28-59.3,29.4c-0.2,5.7-0.1,11.5,0.1,17.2c-3.4,0.4-6.8,0.8-10.2,1.2     c-0.9-18.6-2.4-37.1-1.8-55.7c15.8-1.5,31.2-8.8,41-21.5C725,459.4,727.3,445.6,729.2,432.6z" fill="#ffffff"/>
			<path class="st0" d="M500.9,444c18.5-0.2,36.9-1.6,55.4-2.1c1.8,16,8.7,32.1,21.9,41.9c10.2,8.8,23.8,11.7,36.9,12.6     c-0.1,18.5,2.7,37.1,1.1,55.4c-3.3,0.1-6.6-0.3-9.8-0.5c-0.3-5.9-0.6-11.8-0.9-17.6c-25.8,0.8-51.7-10.6-67.9-30.9     c-11.4-13.6-17.3-31-18.6-48.5c-5.9,0-11.8,0-17.8-0.1C501.2,450.7,501,447.3,500.9,444z" fill="#ffffff"/>
		</g>
		<g>
			<path class="st1" d="M649.2,316.9c6.8,0.7,5.6,7.4,6.4,12.2c15.2,0.4,30.9,5.3,41.7,16.5c9.6,9.4,15.1,22.4,16.3,35.7     c4.9,0.5,12.2-1.9,12.8,5.3c-10.4,1-20.8,1.4-31.2,1.6c-1.9-22.4-22.1-40.8-44.7-39.8C649.7,337.9,649,327.4,649.2,316.9z" fill="#ffffff"/>
			<path class="st1" d="M615.1,335.2c0.4-4-2-15.7,5.1-10.4c1.5,9.6,1.2,19.3,1.7,29.1c-22.5,1.8-40.8,22.1-39.9,44.7     c-9.8,0.4-19.7,0.9-29.4,1.9c-0.2-1.6-0.7-4.7-1-6.3c3.6-0.1,7.2-0.1,10.8-0.2c1.3-14.5,4.7-29.6,15.2-40.3     C586.8,342.4,601,337.1,615.1,335.2z" fill="#ffffff"/>
			<path class="st1" d="M700,418.5c9.7-0.2,19.4-1.6,29.1-1c0.5,1.2,1.5,3.6,2,4.9c-4,0.4-8,0.8-12.1,1.1     c0.3,19.5-9.1,39.5-26.1,49.7c-7.8,5.1-17.1,7.3-26.2,8.8c0,5,1.5,11.1-5,12.6c-1.2-10.3-1.6-20.7-2.2-31.1     c12.7-2,25.4-7.9,32.7-19C697.8,437,699.3,427.6,700,418.5z" fill="#ffffff"/>
			<path class="st1" d="M555.8,427.8c9.4-1.1,18.8-0.9,28.2-1.9c2.4,11.2,6.5,22.8,15.8,30.2c8.1,7.1,18.9,9.7,29.4,10.2     c0.5,9.8,0.9,19.7,1.7,29.5c-1.5,0.2-4.5,0.6-6,0.8c-0.2-3.5-0.4-7.1-0.5-10.6c-14.4-1.5-29.5-4.7-40.2-15.3     c-11.1-9.3-16.3-23.6-18.4-37.6c-3.9,0-7.9,0-11.7-0.7C554.5,431.3,555.4,429,555.8,427.8z" fill="#ffffff"/>
		</g>
	</g>
</g>
</svg>